<?xml version='1.0' encoding='utf-8'?>
<svg xmlns="http://www.w3.org/2000/svg" width="1000" height="1000" viewBox="0 0 264.58332 264.58334" version="1.1" id="svg5"> <defs id="defs2"/> <metadata id="metadata856"> </metadata> <rect style="fill:#f7f7f7;fill-opacity:1;stroke:none;stroke-width:10.5833;stroke-linecap:square;stroke-miterlimit:4;stroke-dasharray:none;stroke-opacity:1;paint-order:stroke markers fill" id="rect8429" width="264.58334" height="264.58334" x="-1.350586e-05" y="0"/> <g id="g8427" transform="translate(-45.917621,-268.57105)"> <path id="path1664" style="fill:none;stroke:#0573e1;stroke-width:30.0001;stroke-linecap:round;stroke-opacity:1;paint-order:fill markers stroke" d="m 908.54688,1550.0723 h 40.98437 a 34.015748,34.015748 0 0 0 34.01563,-34.0157 v -1.9687 a 34.015748,34.015748 0 0 0 -34.01563,-34.0156 h -40.98437 z" transform="scale(0.26458333)"/> <path id="path1699" style="fill:none;stroke:#0573e1;stroke-width:30.0001;stroke-linecap:round;stroke-opacity:1;paint-order:fill markers stroke" d="m 768.54688,1480.0723 h -190 v 70 h 190 z" transform="scale(0.26458333)"/> <path id="path1694" style="fill:none;stroke:#0573e1;stroke-width:30.0001;stroke-linecap:round;stroke-opacity:1;paint-order:fill markers stroke" d="M 438.54688,1480.0723 H 397.5625 a 34.015748,34.015748 0 0 0 -34.01562,34.0156 v 1.9687 a 34.015748,34.015748 0 0 0 34.01562,34.0157 h 40.98438 z" transform="scale(0.26458333)"/> <g id="g1662" transform="translate(68.257359,295.60046)"> <rect style="fill:none;stroke:#4d4d4d;stroke-width:7.9375;stroke-linecap:round;paint-order:fill markers stroke" id="rect1658" width="18.520832" height="97.895836" x="135.08723" y="56.314342" rx="1.3229166" ry="1.3229166"/> <rect style="fill:none;stroke:#4d4d4d;stroke-width:7.9375;stroke-linecap:round;paint-order:fill markers stroke" id="rect1660" width="18.520834" height="71.4375" x="153.60808" y="69.54351" rx="1.3229166" ry="1.3229166"/> </g> <g id="g1656" transform="translate(68.257329,295.60046)"> <rect style="fill:none;stroke:#4d4d4d;stroke-width:7.9375;stroke-linecap:round;paint-order:fill markers stroke" id="rect1652" width="18.520832" height="97.895836" x="66.295601" y="56.314342" rx="1.3229166" ry="1.3229166"/> <rect style="fill:none;stroke:#4d4d4d;stroke-width:7.9375;stroke-linecap:round;paint-order:fill markers stroke" id="rect1654" width="18.520834" height="71.4375" x="47.774754" y="69.54351" rx="1.3229166" ry="1.3229166"/> </g> </g> </svg>